<svg xmlns="http://www.w3.org/2000/svg" viewBox="0 0 512 512">
  <defs>
    <radialGradient id="baubleShine" cx="30%" cy="30%" r="70%">
      <stop offset="0%" stop-color="#ff7b89" />
      <stop offset="60%" stop-color="#e63946" />
      <stop offset="100%" stop-color="#8a0f1a" />
    </radialGradient>
    <linearGradient id="gold" x1="0%" y1="0%" x2="100%" y2="100%">
      <stop offset="0%" stop-color="#f9d423" />
      <stop offset="50%" stop-color="#ffbb00" />
      <stop offset="100%" stop-color="#d4af37" />
    </linearGradient>
    <filter id="dropShadow" x="-10%" y="-10%" width="120%" height="120%">
      <feGaussianBlur in="SourceAlpha" stdDeviation="10" />
      <feOffset dx="5" dy="5" />
      <feComponentTransfer>
        <feFuncA type="linear" slope="0.4" />
      </feComponentTransfer>
      <feMerge>
        <feMergeNode />
        <feMergeNode in="SourceGraphic" />
      </feMerge>
    </filter>
  </defs>

  <circle cx="256" cy="270" r="170" fill="url(#baubleShine)" filter="url(#dropShadow)" />
  <ellipse cx="190" cy="180" rx="60" ry="35" fill="white" fill-opacity="0.2" transform="rotate(-30, 190, 180)" />

  <g transform="translate(226, 90)">
    <rect width="60" height="30" rx="4" fill="url(#gold)" />
    <circle cx="30" cy="-10" r="18" fill="none" stroke="url(#gold)" stroke-width="6" />
  </g>

  <path d="M120,380 C180,450 350,420 400,220" fill="none" stroke="url(#gold)" stroke-width="20" stroke-linecap="round" opacity="0.9" filter="url(#dropShadow)" />

  <g transform="translate(90, 440) rotate(-45)">
    <path d="M0,8 L160,8 Q170,8 170,18 L170,18 Q170,28 160,28 L0,28 Z" fill="#5d4037" />
    <rect x="160" y="3" width="25" height="30" rx="2" fill="#b0bec5" />
    <path d="M185,3 L230,18 L185,33 Z" fill="url(#gold)" />
  </g>
  
  <path d="M420,150 L425,165 L440,170 L425,175 L420,190 L415,175 L400,170 L415,165 Z" fill="#f9d423" />
</svg>
